<svg xmlns="http://www.w3.org/2000/svg" width="126.863" height="121.142" viewBox="0 0 126.863 121.142"><defs><style>.a,.e{fill:none;}.a,.b,.c{stroke:#000;stroke-miterlimit:10;}.a{stroke-width:7.087px;}.b,.c{stroke-width:0.992px;}.c{fill:rgba(255,255,255,0);}.d{stroke:none;}</style></defs><g transform="translate(-542.066 -266.483)"><g class="a" transform="translate(563.549 266.483)"><circle class="d" cx="39.686" cy="39.686" r="39.686"/><circle class="e" cx="39.686" cy="39.686" r="36.143"/></g><g transform="translate(578.597 280.652)"><path class="b" d="M607.458,288.971a3.472,3.472,0,0,1,1.362-.6c7.386-.4,5.533,6.645,4.46,11.773,3.335-.95,9.174-5.277,11.577-1.9.145.352-.534,1.4-1.054,1.611a67.231,67.231,0,0,1-10.841,3.568l-.516,6.156c17.777.556,5.449,10.94-2.121,16.161-3.571,2.92-2.345,9.055,2.569,9.318,6.9,1.436,13.692,1.231,20.252-1.533,3.331-1.4,3.511-2.058,2.6-5.481-.82-3.08-1.53-6.189-2.289-9.285l.5-.625c.594.347,1.575.576,1.721,1.058,1.2,3.989,2.341,7.952,5.152,11.247a3.051,3.051,0,0,1-.475,2.945c-7.311,6.507-17.832,6.79-27.016,5.209-6.355-1.2-8.134-4.22-6.97-11.153-1.354,0-3.319.563-3.932-.108-1.776-2.61-5.577-5.934-3.216-9.252,6.3-10.168,10.488-2.388,10.664-14.245-3.158.016-12.508-1.5-10.4-6.157,3.26,2.474,6.469,3.914,10.9,2.91C610.25,296.249,611.705,292.113,607.458,288.971Zm2.229,34.689.3.389c3.042-2.88,11.949-10.3,3.921-12.51C610.677,312.077,610.826,320.808,609.687,323.661Zm-.513-11.1c-13.4,6.445-5.031,16.844-2.312,9.3C607.719,319,608.325,316.052,609.174,312.566Z" transform="translate(-598.468 -288.358)"/><path class="b" d="M653.69,313.711l9.007.425c-1.334-5.715-5.036-9.32-9.888-12.85,1.118-.322,1.929-.84,2.3-.619,5.633,3.352,10.465,7.412,11.668,14.365.591,2.608-1.245,6.507-3.947,3.635-2.573-2.961-6.344-2.269-9.45-4.022Z" transform="translate(-617.612 -292.676)"/><path class="c" d="M615.79,336.27c1.111-2.8,1.034-11.667,4.221-12.121,8.026,2.215-.874,9.62-3.92,12.51Z" transform="translate(-604.571 -300.967)"/><path class="c" d="M610.976,325.733c-.849,3.487-1.455,6.43-2.313,9.3C605.929,342.585,597.588,332.158,610.976,325.733Z" transform="translate(-600.269 -301.525)"/></g><g transform="translate(542.066 362.129)"><path d="M563,430.51c0,1.529.027,2.047-.028,3.167-.164,2.43-.874,3.958-4.012,4.914a26.194,26.194,0,0,1-5.869.573c-6.279,0-6.551-1.994-6.551-3.876v-.574a2.349,2.349,0,0,1-.437.027c-1.965,0-3.985-1.391-3.985-4.858,0-3.194,2.047-5.6,5-5.6h.109v-1.8h-.546q-1.761,0-4.422-.245l-.191-3.194a32.28,32.28,0,0,0,4.368.382h.791v-.218a14.238,14.238,0,0,0-.273-3.413h3.794a18.884,18.884,0,0,0-.245,3.385,40.408,40.408,0,0,0,4.8-.955V421.5a43.855,43.855,0,0,1-4.8.764v3.494a4.611,4.611,0,0,1,.792,2.73,7.168,7.168,0,0,1-1.447,4.613v1.065c0,1.146.3,1.747,3.494,1.747a17.28,17.28,0,0,0,4.149-.492,2.533,2.533,0,0,0,1.966-2.729,24.269,24.269,0,0,0-.191-3.33Zm-16.542.983c1.228,0,1.72-1.311,1.72-2.839,0-1.038-.519-1.665-1.283-1.665-1.065,0-1.938,1.064-1.938,2.648C544.96,430.811,545.669,431.493,546.461,431.493Zm13.375-13.212a33.449,33.449,0,0,1,5.733,5.16l-2.457,2.511a36.8,36.8,0,0,0-5.569-5.405Z" transform="translate(-542.066 -414.733)"/><path d="M602.6,421.587c-1.365.382-2.948.764-4.586,1.091,1.038,2.184,2.321,4.75,3.494,6.906l-1.91,2.047c-1.475-.3-4.15-.737-6.143-.983l.3-2.784c.9.082,2.375.245,3.194.3-.655-1.365-1.584-3.249-2.375-4.941a60.721,60.721,0,0,1-11.383,0l-.109-3.466a46.088,46.088,0,0,0,10.1.272c-.218-.436-.409-.873-.573-1.282a21.011,21.011,0,0,0-1.338-2.593l3.822-.737c.463,1.42.982,2.7,1.583,4.122a39.486,39.486,0,0,0,5.3-1.365Zm-14.768,7.507a12.125,12.125,0,0,0-.737,3.22c0,1.966,1.01,3.3,4.832,3.3a29.9,29.9,0,0,0,7.37-.792l-.082,3.576a37.858,37.858,0,0,1-7.288.655c-5.432,0-8.353-2.047-8.353-5.814a18.334,18.334,0,0,1,.764-4.45Z" transform="translate(-556.515 -414.599)"/><path d="M624.916,416.442a27.858,27.858,0,0,0-.354,3.6c-.137,2.893-.328,8.953-.328,12.311,0,2.729,1.638,3.6,3.713,3.6,4.476,0,7.316-2.566,9.254-5.514l2.457,3.03a14.069,14.069,0,0,1-11.739,6.169c-4.422,0-7.288-1.938-7.288-6.551,0-3.63.273-10.728.273-13.048a16.943,16.943,0,0,0-.355-3.658Z" transform="translate(-569.716 -414.941)"/><path d="M679.519,418.795c-.109,13.512-.218,17.879-1.091,19.217a2.813,2.813,0,0,1-2.075,1.446,17.792,17.792,0,0,1-3.494.082,7.161,7.161,0,0,0-.846-2.729c1.229.082,2.238.109,2.812.109a.962.962,0,0,0,.928-.519c.6-.846.736-5.022.846-16.378h-9.745a21.128,21.128,0,0,1-2.429,3.6,19.98,19.98,0,0,0-2.1-1.393c-.191.546-.382,1.065-.545,1.529a8.277,8.277,0,0,1,1.992,5.514c0,1.72-.355,2.866-1.2,3.494a4.377,4.377,0,0,1-1.555.546,16.943,16.943,0,0,1-1.775.082,6.476,6.476,0,0,0-.71-2.784c.492.027.874.027,1.2.027a1.169,1.169,0,0,0,.765-.245c.3-.218.437-.764.437-1.529a7.2,7.2,0,0,0-1.883-4.75c.545-1.72,1.119-4.095,1.556-5.951h-2.129v21.428h-2.812V415.273h5.924l.463-.136,2.1,1.229c-.491,1.583-1.037,3.494-1.611,5.186a20.034,20.034,0,0,0,3.822-7.4l2.729.655c-.273.847-.573,1.665-.928,2.484h11.355Zm-12.393,15.859v1.638h-2.32V429.74h2.32v2.621h1.584v-3.466h-4.2v-2.32h4.2v-1.993h-.628a16.327,16.327,0,0,1-1.474,1.911,8.677,8.677,0,0,0-1.939-1.393,13.162,13.162,0,0,0,2.867-4.614l2.4.41c-.191.464-.383.928-.6,1.392h5.6v2.293h-3.685v1.993H675.4v2.32h-4.149v3.466h1.5v-2.538h2.32V435.5h-2.32v-.847Z" transform="translate(-582.086 -414.154)"/><path d="M716.254,427.955a18.67,18.67,0,0,0,7.234,3.385,13.167,13.167,0,0,0-2.047,2.593c-.409-.109-.819-.245-1.2-.382v6.606h-2.975v-.874h-3.248v.9h-2.839v-9.227h4.04a16.13,16.13,0,0,1-3.221-3h-3.549a20.263,20.263,0,0,1-3.6,3h4.177v9.2H706.1v-.874h-3.276v.9h-2.812v-6.77c-.382.164-.764.3-1.174.437a11.848,11.848,0,0,0-1.911-2.485,23.852,23.852,0,0,0,6.77-3.412h-5.842v-2.839h8.817c.382-.491.736-1.01,1.064-1.529h-8.189v-7.916h9.336v6.96l2.566.874v-7.834h9.336v7.916h-9.336v-.027a14.114,14.114,0,0,1-.846,1.556h11.956v2.839ZM705.8,418.209h-3.3v2.839h3.3Zm.3,15.423h-3.276v3H706.1Zm11.164,3v-3h-3.248v3Zm-2.894-15.588h3.3v-2.839h-3.3Z" transform="translate(-596.624 -414.688)"/></g></g></svg>