<svg xmlns="http://www.w3.org/2000/svg" width="104" height="100.001" viewBox="0 0 104 100.001"><defs><style>.a{fill:#fff;}</style></defs><g transform="translate(-542.066 -266.182)"><path class="a" d="M32.5,7.087A25.413,25.413,0,1,0,57.913,32.5,25.442,25.442,0,0,0,32.5,7.087M32.5,0A32.5,32.5,0,1,1,0,32.5,32.5,32.5,0,0,1,32.5,0Z" transform="translate(560.066 266.182)"/><g transform="translate(572.024 278.102)"><path class="a" d="M606.01,288.938c.2-.092.533-.979,1-1,6.057-.325,4.88,5.8,4,10,2.735-.779,7.029-3.767,9-1,.119.288-.573.827-1,1a56.636,56.636,0,0,1-9,3v5c14.578.456,4.208,8.718-2,13-2.928,2.394-2.03,7.785,2,8a28.93,28.93,0,0,0,17-2c2.732-1.151,2.747-1.193,2-4-.672-2.526-1.378-5.461-2-8h1a2.017,2.017,0,0,1,1,1c.987,3.271,1.695,6.3,4,9a1.714,1.714,0,0,1,0,2c-6,5.336-14.469,6.3-22,5-5.212-.984-6.955-4.315-6-10-1.11,0-2.5.551-3,0-1.456-2.14-4.937-4.279-3-7,5.17-8.338,8.856-2.276,9-12-2.589.013-10.729-1.183-9-5a10.027,10.027,0,0,0,9,2C607.9,294.384,609.493,291.515,606.01,288.938Zm2,28v1c2.495-2.362,9.584-9.189,3-11C608.359,307.379,608.944,314.6,608.01,316.938Zm-1-9c-10.992,5.285-4.229,14.188-2,8C605.713,313.586,606.314,310.8,607.01,307.938Z" transform="translate(-598.468 -288.358)"/><path class="a" d="M607.462,287.43a4.493,4.493,0,0,1,3.691,1.485c1.616,1.989,1.065,5.573.518,8.278.435-.164.9-.361,1.381-.565a13.017,13.017,0,0,1,4.621-1.337,3.181,3.181,0,0,1,2.742,1.36l.033.046.022.052a.724.724,0,0,1-.014.57A2.6,2.6,0,0,1,619.2,298.4l-.012,0c-.609.228-1.226.467-1.823.7a44.92,44.92,0,0,1-6.855,2.241v4.117c4.4.2,6.789,1.153,7.309,2.919.439,1.49-.515,3.359-2.914,5.714a50.921,50.921,0,0,1-6.592,5.24,4.45,4.45,0,0,0-1.31,4.737,3.265,3.265,0,0,0,3.037,2.371l.038,0,.037.008a24.612,24.612,0,0,0,5,.505,30.5,30.5,0,0,0,11.7-2.477c1.234-.52,1.885-.807,2.053-1.143s-.031-1.112-.34-2.272c-.565-2.123-1.166-4.584-1.7-6.754l-.307-1.255-.15-.614h1.766l.116.068a2.507,2.507,0,0,1,1.225,1.285c.109.36.215.72.317,1.068.823,2.791,1.6,5.428,3.585,7.754a2.394,2.394,0,0,1,.433,1.643,1.505,1.505,0,0,1-.487,1.055c-4.146,3.687-9.818,5.636-16.4,5.636a35.506,35.506,0,0,1-6-.524h-.008c-2.744-.518-4.592-1.655-5.649-3.475a9.96,9.96,0,0,1-.843-6.473c-.178.023-.36.051-.539.079a7.444,7.444,0,0,1-1.122.122,1.432,1.432,0,0,1-1.121-.406l-.024-.026-.02-.029a14.793,14.793,0,0,0-1.333-1.582,10.841,10.841,0,0,1-2-2.66,3.159,3.159,0,0,1,.331-3.311c2.366-3.81,4.482-4.732,6.028-5.406a3.836,3.836,0,0,0,2.058-1.469,9.566,9.566,0,0,0,.82-4.365,22.466,22.466,0,0,1-4.346-.646c-2.287-.584-3.792-1.415-4.473-2.471a2.585,2.585,0,0,1-.127-2.573l.257-.566.5.376a9.643,9.643,0,0,0,6.017,2.22,11.179,11.179,0,0,0,2.182-.225c0-.8.077-1.549.149-2.28.23-2.335.412-4.179-1.942-5.921l-.673-.5.7-.322c.033-.043.082-.119.12-.177.229-.348.575-.873,1.129-.9C607.146,287.434,607.307,287.43,607.462,287.43Zm2.894,11.21.168-.8c.538-2.572,1.352-6.458-.142-8.3a3.517,3.517,0,0,0-2.921-1.118c-.133,0-.271,0-.411.011a1.756,1.756,0,0,0-.344.423c2.381,1.993,2.165,4.185,1.937,6.5a19.826,19.826,0,0,0-.139,2.568l.012.408-.4.09a12.523,12.523,0,0,1-2.793.333,10.288,10.288,0,0,1-6.045-2.007,1.478,1.478,0,0,0,.237,1.021c.526.815,1.905,1.542,3.884,2.047a20.541,20.541,0,0,0,4.564.625l.547,0-.008.506c-.039,2.646-.339,4.3-.972,5.353a4.7,4.7,0,0,1-2.513,1.869c-1.507.657-3.383,1.474-5.589,5.032l-.017.026a2.15,2.15,0,0,0-.244,2.341,10.174,10.174,0,0,0,1.826,2.4,16.19,16.19,0,0,1,1.395,1.653.651.651,0,0,0,.374.07,6.8,6.8,0,0,0,.967-.11,8.338,8.338,0,0,1,1.278-.135h.586l-.1.578c-.469,2.793-.264,4.9.627,6.432.9,1.556,2.53,2.536,4.972,3a34.511,34.511,0,0,0,5.832.509c4.422,0,10.744-.935,15.75-5.391l.016-.014a.589.589,0,0,0,.135-.384,1.479,1.479,0,0,0-.2-.91c-2.122-2.486-2.928-5.221-3.782-8.117-.1-.347-.208-.705-.316-1.062-.058-.193-.281-.411-.663-.647h-.23l.157.642c.529,2.166,1.128,4.621,1.691,6.734.393,1.476.609,2.288.269,2.97s-1.127,1.013-2.556,1.615a31.5,31.5,0,0,1-12.087,2.555,25.615,25.615,0,0,1-5.171-.519,4.264,4.264,0,0,1-3.889-3.051,5.579,5.579,0,0,1-.086-3.093,5.182,5.182,0,0,1,1.543-2.577v-1.868l.035-.089a16.1,16.1,0,0,0,.58-3.484c.312-2.98.664-6.351,2.692-6.8q-.4-.022-.826-.036l-.481-.015v-5.89l.4-.078A41.892,41.892,0,0,0,617,298.177c.6-.232,1.214-.471,1.827-.7a2.145,2.145,0,0,0,.63-.438,2.191,2.191,0,0,0-1.787-.756,12.389,12.389,0,0,0-4.234,1.259,20.984,20.984,0,0,1-2.292.874Zm-1.183,18.87a44.476,44.476,0,0,0,5.032-4.124c2.055-2.017,2.974-3.651,2.657-4.726-.249-.844-1.446-1.865-5.584-2.161,1.615.474,2.579,1.3,2.866,2.446.343,1.374-.294,3.088-1.949,5.241A32.666,32.666,0,0,1,609.174,317.511Zm-.55-.85a31.049,31.049,0,0,0,2.785-3.079c1.418-1.844,2.031-3.364,1.773-4.4-.2-.785-.932-1.369-2.189-1.736-.525.146-.933.756-1.245,1.858a25.825,25.825,0,0,0-.633,4.067A22.351,22.351,0,0,1,608.624,316.661Zm-.884-9.624-.248,1.019c-.193.793-.38,1.587-.562,2.355-.48,2.035-.933,3.956-1.445,5.669l-.009.026a4.574,4.574,0,0,1-1.091,1.806,2.134,2.134,0,0,1-1.466.629,2.7,2.7,0,0,1-2.4-2.372,5.743,5.743,0,0,1,.879-4.267,12.5,12.5,0,0,1,5.393-4.41Zm-3.2,8.746c.5-1.682.951-3.585,1.426-5.6.1-.429.2-.867.31-1.308a10.673,10.673,0,0,0-4.029,3.548,4.677,4.677,0,0,0-.755,3.524c.215.942.8,1.6,1.43,1.6S604.132,316.905,604.539,315.783Z" transform="translate(-598.468 -288.358)"/><path class="a" d="M653.488,311.685c2.377.112,4.369-.124,7,0-1.094-4.687-4.021-8.106-8-11a2.93,2.93,0,0,1,2,0c4.619,2.749,9.014,6.3,10,12,.485,2.139-.784,5.355-3,3-2.11-2.428-5.453-2.563-8-4Z" transform="translate(-623.946 -294.104)"/><path class="a" d="M662.95,317.006a2.6,2.6,0,0,1-1.823-.982l-.013-.015c-1.247-1.435-2.953-2.012-4.758-2.621a18.016,18.016,0,0,1-3.111-1.272l-1.818-1.026,2.085.1c.437.021.89.031,1.385.031.637,0,1.25-.016,1.9-.033s1.332-.035,2.042-.035c.348,0,.681,0,1.007.013-1.065-3.852-3.51-7.069-7.648-10.079l-.821-.6.975-.281a4.668,4.668,0,0,1,1.271-.188,2.274,2.274,0,0,1,1.12.238c4.2,2.5,9.16,6.161,10.233,12.329a4.762,4.762,0,0,1-.676,3.713A1.708,1.708,0,0,1,662.95,317.006Zm-1.094-1.655a1.724,1.724,0,0,0,1.094.662.7.7,0,0,0,.573-.333,3.819,3.819,0,0,0,.481-2.887l-.005-.025a13.2,13.2,0,0,0-3.513-6.855,27.425,27.425,0,0,0-6.252-4.8,1.226,1.226,0,0,0-.486-.1c3.969,3.117,6.274,6.5,7.222,10.557l.149.639-.656-.031c-.522-.025-1.054-.036-1.628-.036-.7,0-1.367.018-2.016.035-.289.008-.582.015-.878.021.239.083.483.166.729.249A11.017,11.017,0,0,1,661.856,315.351Z" transform="translate(-623.946 -294.104)"/></g><g transform="translate(542.066 344.918)"><path class="a" d="M559.066,428.189c0,1.254.045,1.082,0,2-.134,1.992-.426,3.216-3,4a21.212,21.212,0,0,1-5,1c-5.149,0-5-1.456-5-3v-1c-.112.022-.888,0-1,0-1.612,0-3-1.157-3-4a3.662,3.662,0,0,1,4-4h0v-2h0a39.379,39.379,0,0,1-4,0v-3c1.231.179,2.948,1,4,1h0v-1c0-1.41.157-1.35,0-2h3a11.173,11.173,0,0,0,0,2c1.276-.179,2.657.358,4,0v2a40.194,40.194,0,0,1-4,1v3a3.358,3.358,0,0,1,1,2c0,1.41-1.172,3.015-2,4v1c0,.94.381,1,3,1a21.631,21.631,0,0,0,4,0c1.141-.358,1-1.836,1-3a9.912,9.912,0,0,0,0-2Zm-13,0c1.007,0,1-.747,1-2,0-.851-.373-1-1-1a2.016,2.016,0,0,0-2,2C544.066,428.151,545.416,428.189,546.066,428.189Zm11-10a21.819,21.819,0,0,1,4,4l-2,2a24.121,24.121,0,0,0-4-4Z" transform="translate(-542.066 -414.924)"/><path class="a" d="M599.295,420.011c-1.119.313-2.656.732-4,1,.851,1.791,2.038,4.231,3,6l-2,2c-1.209-.246-3.366-.8-5-1l1-2c.739.067,1.329-.045,2,0-.537-1.119-1.351-2.612-2-4a46.286,46.286,0,0,1-9,0v-3a33.98,33.98,0,0,0,8,0c-.179-.357.134-.664,0-1-.4-.9-1.53-1.217-2-2l4-1c.38,1.164.507,2.836,1,4a27.463,27.463,0,0,0,4-1Zm-12,7c-.269.716-1,1.351-1,2,0,1.612.866,3,4,3a21.117,21.117,0,0,0,6-1v3a24.13,24.13,0,0,1-6,1c-4.455,0-7-1.911-7-5a20.436,20.436,0,0,1,1-4Z" transform="translate(-561.295 -414.747)"/><path class="a" d="M623.863,416.465a22.435,22.435,0,0,0,0,3c-.112,2.373,0,7.247,0,10a2.67,2.67,0,0,0,3,3c3.671,0,5.41-2.582,7-5l2,3a10.279,10.279,0,0,1-9,5c-3.626,0-6-1.217-6-5v-11a14.871,14.871,0,0,0,0-3Z" transform="translate(-578.863 -415.201)"/><path class="a" d="M675.326,418.418c-.089,11.08-.284,13.9-1,15-.47.783-1.283.843-2,1-.738.134-1.948,1.045-3,1-.045-.627.381-2.351,0-3a19.127,19.127,0,0,0,2,0c.358,0,.8.314,1,0,.492-.694.91-3.687,1-13h-8a17.824,17.824,0,0,1-2,3,24,24,0,0,0-2-2c-.157.448-.866,1.619-1,2,1.365,1.7,2,2.679,2,4,0,1.41-.306,2.485-1,3-.358.224-.508-.09-1,0-.4.045-1.463,1-2,1-.022-.649.381-2.373,0-3,.4.022.732,0,1,0,.246,0-.157.134,0,0,.246-.179,1-.373,1-1a7.231,7.231,0,0,0-2-4c.447-1.411.642-3.478,1-5h-1v18h-3v-20h6l1,1c-.4,1.3-.529,2.612-1,4a15.925,15.925,0,0,0,3-6h2c-.224.694.291,1.329,0,2h9Zm-10,13v1h-2v-5h2v2h1v-3h-3v-2h3v-2h0c-.359.537-1.552,1.507-2,2-.4-.381-.507-.776-1-1a10.505,10.505,0,0,0,2-4h2c-.157.38.179.62,0,1h4v2h-3v2h4v2h-4v3h1v-2h2v4h-6Z" transform="translate(-595.326 -414.154)"/><path class="a" d="M712.673,426.13c1.567,1.254,3.739,1.463,6,2a18.9,18.9,0,0,0-2,3c-.336-.089-.687-.888-1-1v6h-2v-1h-3v1h-2v-8h3a8.094,8.094,0,0,1-2-2h-3a14.917,14.917,0,0,1-3,2h3v8h-2v-1h-3v1h-2v-6c-.313.134-.664-.112-1,0a12.088,12.088,0,0,0-2-2c2.1-.694,4.433-.836,6-2h-5v-3h7c.313-.4.731-.575,1-1h-7v-6h8v5l2,1v-6h8v6h-8c-.2.448-.754.6-1,1h10v3Zm-8-8h-3v2h3Zm0,12h-3v3h3Zm9,3v-3h-3v3Zm-2-13h2v-2h-2Z" transform="translate(-614.673 -414.865)"/></g></g></svg>